<?xml version="1.0" standalone="no"?>
<!DOCTYPE svg PUBLIC "-//W3C//DTD SVG 20010904//EN"
 "http://www.w3.org/TR/2001/REC-SVG-20010904/DTD/svg10.dtd">
<svg version="1.0" xmlns="http://www.w3.org/2000/svg"
 width="148.000000pt" height="148.000000pt" viewBox="0 0 148.000000 148.000000"
 preserveAspectRatio="xMidYMid meet">
<metadata>
Created by potrace 1.11, written by Peter Selinger 2001-2013
</metadata>
<g transform="translate(0.000000,148.000000) scale(0.100000,-0.100000)"
fill="#000000" stroke="none">
<path d="M595 1440 c-11 -4 -31 -20 -45 -35 -54 -58 -21 -187 66 -255 76 -60
162 -76 230 -44 89 42 85 172 -7 264 -68 68 -176 99 -244 70z"/>
<path d="M164 1189 c-2 -4 -4 -64 -5 -133 0 -69 -2 -126 -5 -126 -2 0 -22 11
-44 25 -55 35 -57 35 -84 -9 l-24 -40 77 -46 76 -46 2 -240 c1 -131 2 -296 2
-366 l1 -127 90 2 c50 1 90 1 90 -1 0 -1 -7 -14 -16 -27 l-16 -25 371 0 372 0
-11 21 c-7 11 -9 23 -6 26 2 3 66 5 140 5 l136 0 0 178 0 178 45 26 c48 29 84
71 105 125 18 45 16 147 -3 192 -20 48 -79 113 -117 129 l-29 12 -3 136 -3
136 -160 1 -159 0 -126 -207 c-69 -115 -127 -208 -130 -208 -3 0 -59 91 -124
201 -65 110 -124 203 -129 206 -14 9 -308 10 -313 2z m306 -177 c32 -23 59
-78 64 -130 10 -96 77 -165 159 -165 84 1 136 40 216 162 54 82 107 128 151
131 52 4 68 -1 106 -34 l39 -33 -35 -8 c-77 -16 -146 -69 -183 -140 -30 -57
-29 -164 1 -225 l22 -44 -35 -28 c-19 -16 -48 -58 -66 -94 l-32 -64 -91 160
c-50 88 -93 160 -96 160 -3 0 -32 -46 -65 -101 -76 -129 -84 -142 -125 -213
l-34 -60 -8 30 c-9 34 -14 61 -23 128 -7 58 -37 134 -75 191 -15 22 -33 50
-39 63 -12 22 -11 23 10 11 13 -6 62 -35 109 -64 137 -83 125 -80 149 -41 12
18 21 37 21 42 0 5 -75 54 -167 109 -93 54 -171 103 -174 108 -3 5 -2 29 2 55
19 101 122 150 199 94z m770 -222 c0 -36 -94 -170 -118 -170 -13 0 -23 57 -16
88 8 31 40 71 69 82 29 12 65 12 65 0z"/>
</g>
</svg>
